<?xml version="1.0" encoding="UTF-8" ?>
<!DOCTYPE svg PUBLIC "-//W3C//DTD SVG 1.1//EN" "http://www.w3.org/Graphics/SVG/1.1/DTD/svg11.dtd">
<svg width="225pt" height="116pt" viewBox="0 0 225 116" version="1.1" xmlns="http://www.w3.org/2000/svg">
<g id="#ffbc01ff">
<path fill="#ffbc01" opacity="1.00" d=" M 101.13 0.00 L 121.97 0.00 C 121.86 6.67 121.88 13.34 121.81 20.02 C 111.46 16.04 101.11 12.10 90.75 8.15 C 88.76 18.77 86.70 29.38 84.69 39.99 C 76.59 34.96 68.58 29.80 60.45 24.84 C 58.81 23.75 56.32 22.98 56.25 20.65 C 63.46 18.19 70.43 15.11 77.53 12.36 C 82.09 10.42 86.98 9.09 91.11 6.24 C 94.42 4.11 97.72 1.97 101.13 0.00 Z" />
<path fill="#ffbc01" opacity="1.00" d=" M 24.31 30.17 C 34.74 26.73 45.26 23.55 55.66 20.01 C 53.52 30.80 50.27 41.32 47.65 51.99 C 38.07 45.33 28.60 38.53 19.00 31.90 C 15.50 41.62 11.86 51.30 8.31 61.01 C 5.55 58.15 2.66 55.42 0.00 52.48 L 0.00 34.42 C 8.11 33.10 16.54 33.13 24.31 30.17 Z" />
<path fill="#ffbc01" opacity="1.00" d=" M 128.37 47.44 C 132.00 45.70 136.57 49.12 135.96 53.09 C 135.72 57.19 130.33 59.54 127.18 56.88 C 123.83 54.57 124.55 48.86 128.37 47.44 Z" />
<path fill="#ffbc01" opacity="1.00" d=" M 0.00 70.97 C 2.31 72.28 4.67 73.50 7.01 74.75 C 4.69 76.88 2.29 78.91 0.00 81.07 L 0.00 70.97 Z" />
</g>
<g id="#6256eeff">
<path fill="#6256ee" opacity="1.00" d=" M 217.38 0.00 L 217.78 0.00 C 219.87 9.38 222.66 18.63 224.99 28.00 C 214.66 26.88 204.33 25.76 193.99 24.65 C 201.75 16.39 209.83 8.44 217.38 0.00 Z" />
<path fill="#6256ee" opacity="1.00" d=" M 166.96 50.00 C 175.67 42.02 184.33 33.97 193.10 26.05 C 194.76 35.69 196.34 45.34 198.00 54.98 C 188.67 53.15 179.36 51.26 170.03 49.44 C 170.38 59.62 170.69 69.82 171.01 80.01 C 161.32 76.67 151.61 73.36 141.92 70.04 C 141.21 79.02 140.54 88.00 139.83 96.99 C 130.89 92.81 121.97 88.60 113.04 84.42 C 122.32 79.49 131.54 74.45 140.91 69.69 C 140.45 69.51 139.54 69.17 139.08 69.00 C 148.34 62.62 157.75 56.44 166.96 50.00 Z" />
<path fill="#6256ee" opacity="1.00" d=" M 8.01 75.02 C 19.68 78.13 31.35 81.22 43.01 84.34 C 35.37 91.22 27.75 98.11 20.12 105.00 C 16.07 95.01 12.04 85.02 8.01 75.02 Z" />
<path fill="#6256ee" opacity="1.00" d=" M 43.01 84.04 C 55.02 85.14 67.00 86.45 79.00 87.64 C 72.62 95.76 66.25 103.88 59.84 111.98 C 54.23 102.66 48.66 93.33 43.01 84.04 Z" />
<path fill="#6256ee" opacity="1.00" d=" M 79.05 87.75 C 90.04 86.86 101.01 85.83 112.01 85.06 C 107.57 93.34 103.25 101.69 98.86 109.99 C 92.25 102.58 85.61 95.20 79.05 87.75 Z" />
</g>
<g id="#ed8f9dff">
<path fill="#ed8f9d" opacity="1.00" d=" M 164.35 7.44 C 168.32 5.48 173.21 9.76 171.80 13.96 C 170.96 17.58 166.10 19.25 163.22 16.90 C 159.83 14.63 160.52 8.86 164.35 7.44 Z" />
<path fill="#ed8f9d" opacity="1.00" d=" M 74.00 50.00 C 76.00 50.00 78.00 50.00 80.00 50.00 C 80.00 52.67 80.00 55.33 80.00 58.00 C 78.00 58.00 76.00 58.00 74.00 58.00 C 74.00 55.33 74.00 52.67 74.00 50.00 Z" />
<path fill="#ed8f9d" opacity="1.00" d=" M 182.28 70.00 C 184.18 70.31 186.08 70.62 187.99 70.94 C 187.57 73.63 187.12 76.31 186.69 79.00 C 184.79 78.68 182.89 78.37 180.98 78.06 C 181.42 75.37 181.86 72.69 182.28 70.00 Z" />
<path fill="#ed8f9d" opacity="1.00" d=" M 119.00 111.45 C 120.80 109.97 122.60 108.48 124.40 107.00 C 125.59 108.19 126.79 109.37 127.98 110.56 C 126.18 112.04 124.39 113.52 122.59 115.00 C 121.39 113.82 120.19 112.63 119.00 111.45 Z" />
<path fill="#ed8f9d" opacity="1.00" d=" M 5.03 112.65 C 6.68 111.77 8.34 110.89 10.00 110.01 C 10.66 111.14 11.33 112.27 12.00 113.40 C 10.34 114.26 8.68 115.13 7.02 115.99 C 6.35 114.87 5.69 113.76 5.03 112.65 Z" />
</g>
<g id="#1bd1a7ff">
<path fill="#1bd1a7" opacity="1.00" d=" M 26.08 16.51 C 27.94 16.35 29.79 16.19 31.65 16.02 C 31.76 17.52 31.88 19.01 31.99 20.51 C 30.09 20.67 28.19 20.84 26.29 20.99 C 26.22 19.50 26.15 18.00 26.08 16.51 Z" />
<path fill="#1bd1a7" opacity="1.00" d=" M 100.99 26.74 C 102.20 25.16 103.41 23.58 104.63 22.00 C 106.75 23.76 108.88 25.51 111.01 27.26 C 109.80 28.84 108.58 30.42 107.37 32.00 C 105.25 30.24 103.12 28.49 100.99 26.74 Z" />
<path fill="#1bd1a7" opacity="1.00" d=" M 23.01 60.78 C 24.22 59.21 25.37 57.59 26.58 56.01 C 28.71 57.75 30.84 59.49 32.97 61.22 C 31.78 62.82 30.60 64.43 29.39 66.02 C 27.27 64.26 25.15 62.51 23.01 60.78 Z" />
<path fill="#1bd1a7" opacity="1.00" d=" M 1.99 93.12 C 2.90 92.09 3.81 91.05 4.72 90.02 C 6.15 91.31 7.58 92.59 9.01 93.88 C 8.10 94.91 7.19 95.94 6.28 96.98 C 4.85 95.69 3.42 94.41 1.99 93.12 Z" />
<path fill="#1bd1a7" opacity="1.00" d=" M 74.00 110.89 C 76.15 109.91 78.30 108.95 80.46 108.01 C 81.30 109.38 82.14 110.75 82.98 112.12 C 80.84 113.09 78.69 114.05 76.53 114.98 C 75.69 113.62 74.84 112.25 74.00 110.89 Z" />
</g>
</svg>
