<?xml version="1.0" encoding="UTF-8" ?>
<!DOCTYPE svg PUBLIC "-//W3C//DTD SVG 1.1//EN" "http://www.w3.org/Graphics/SVG/1.1/DTD/svg11.dtd">
<svg width="197pt" height="83pt" viewBox="0 0 197 83" version="1.1" xmlns="http://www.w3.org/2000/svg">
<g id="#ed8f9dff">
<path fill="#ed8f9d" opacity="1.00" d=" M 0.00 0.00 L 1.51 0.00 C 11.11 6.02 21.03 11.59 30.30 18.10 C 29.13 18.21 27.95 18.34 26.78 18.47 C 18.84 22.33 10.27 24.71 2.27 28.42 C 1.70 28.52 0.57 28.71 0.00 28.81 L 0.00 28.34 C 1.77 25.51 1.14 22.12 1.08 18.97 C 0.93 14.02 0.73 9.07 0.00 4.16 L 0.00 0.00 Z" />
<path fill="#ed8f9d" opacity="1.00" d=" M 120.00 15.00 C 122.00 15.00 124.00 15.00 126.00 15.00 C 126.00 18.00 126.00 21.00 126.00 24.00 C 124.00 24.00 122.00 24.00 120.00 24.00 C 120.00 21.00 120.00 18.00 120.00 15.00 Z" />
<path fill="#ed8f9d" opacity="1.00" d=" M 165.01 31.93 C 175.66 26.72 186.40 21.71 197.00 16.40 L 197.00 21.27 C 195.08 30.50 193.29 39.77 191.44 49.02 C 182.63 43.31 173.81 37.64 165.01 31.93 Z" />
<path fill="#ed8f9d" opacity="1.00" d=" M 28.16 19.72 C 28.87 19.41 29.58 19.12 30.29 18.83 C 39.24 23.37 48.54 27.19 57.63 31.42 C 59.37 32.39 61.74 32.68 62.81 34.54 C 72.85 37.89 82.94 41.06 93.00 44.35 C 84.76 50.24 76.52 56.13 68.27 62.00 C 65.93 52.96 63.58 43.92 61.25 34.88 C 51.75 40.23 42.34 45.73 32.76 50.94 C 31.28 40.52 29.86 30.10 28.16 19.72 Z" />
<path fill="#ed8f9d" opacity="1.00" d=" M 128.07 41.27 C 139.94 37.52 152.03 34.49 163.98 31.02 C 160.00 41.35 155.99 51.67 151.98 61.99 C 143.99 55.10 136.13 48.06 128.07 41.27 Z" />
<path fill="#ed8f9d" opacity="1.00" d=" M 94.99 45.17 C 105.99 44.13 116.99 43.04 128.00 42.02 C 122.81 50.67 117.60 59.30 112.45 67.97 C 106.57 60.41 100.82 52.76 94.99 45.17 Z" />
<path fill="#ed8f9d" opacity="1.00" d=" M 166.02 77.42 C 167.83 75.94 169.64 74.47 171.50 73.05 C 172.66 74.18 173.84 75.32 175.01 76.46 C 173.23 78.01 171.42 79.52 169.58 80.99 C 168.39 79.80 167.20 78.62 166.02 77.42 Z" />
<path fill="#ed8f9d" opacity="1.00" d=" M 49.04 79.60 C 50.70 78.74 52.35 77.87 54.01 77.00 C 54.67 78.13 55.33 79.27 55.98 80.40 C 54.32 81.26 52.66 82.13 51.00 82.99 C 50.34 81.86 49.69 80.73 49.04 79.60 Z" />
</g>
<g id="#cb7a86da">
<path fill="#cb7a86" opacity="0.85" d=" M 0.00 4.16 C 0.73 9.07 0.93 14.02 1.08 18.97 C 1.14 22.12 1.77 25.51 0.00 28.34 L 0.00 4.16 Z" />
</g>
<g id="#ffbc01ff">
<path fill="#ffbc01" opacity="1.00" d=" M 176.32 13.46 C 179.96 11.67 184.56 15.10 183.97 19.08 C 183.70 23.16 178.37 25.51 175.20 22.89 C 171.84 20.62 172.52 14.89 176.32 13.46 Z" />
</g>
<g id="#1bd1a7ff">
<path fill="#1bd1a7" opacity="1.00" d=" M 68.04 26.76 C 69.34 25.17 70.64 23.58 71.95 21.98 C 74.31 23.74 76.66 25.51 79.03 27.26 C 77.69 28.84 76.37 30.42 75.05 32.01 C 72.71 30.27 70.37 28.52 68.04 26.76 Z" />
<path fill="#1bd1a7" opacity="1.00" d=" M 46.00 59.04 C 47.09 58.03 48.19 57.02 49.28 56.01 C 50.85 57.34 52.43 58.65 54.01 59.97 C 52.90 60.97 51.80 61.97 50.70 62.98 C 49.14 61.66 47.57 60.35 46.00 59.04 Z" />
<path fill="#1bd1a7" opacity="1.00" d=" M 120.00 77.87 C 122.16 76.90 124.32 75.93 126.50 75.02 C 127.32 76.39 128.14 77.75 128.96 79.11 C 126.83 80.09 124.69 81.06 122.54 81.98 C 121.69 80.61 120.85 79.24 120.00 77.87 Z" />
</g>
</svg>
