<?xml version="1.0"?>
<svg xmlns="http://www.w3.org/2000/svg" height="512px" viewBox="-42 0 511 511.9996" width="512px" class=""><g transform="matrix(-1 0 0 1 469 0)"><path d="m215.03125 334.710938c-3.9375 0-7.769531-1.554688-10.609375-4.398438l-106.121094-106.121094c-3.546875-3.542968-5.085937-8.625-4.109375-13.542968.980469-4.917969 4.351563-9.019532 8.984375-10.9375l180.9375-74.8125c5.605469-2.320313 12.058594-1.035157 16.347657 3.253906 4.289062 4.292968 5.574218 10.742187 3.253906 16.347656l-74.8125 180.9375c-1.917969 4.632812-6.019532 8.003906-10.9375 8.984375-.976563.191406-1.957032.289063-2.933594.289063zm0 0" fill="#ffda2d" data-original="#FFDA2D" class="" style="fill:#EC454F" data-old_color="#ffda2d"/><path d="m190.851562 511.851562-115.675781-.007812c-8.289062 0-15.007812-6.71875-15.007812-15.007812v-176.089844c0-6.632813 4.351562-12.476563 10.707031-14.378906 6.355469-1.898438 13.203125.597656 16.84375 6.140624l115.675781 176.09375c3.027344 4.613282 3.285157 10.511719.664063 15.367188-2.617188 4.855469-7.691406 7.882812-13.207032 7.882812zm0 0" fill="#008adf" data-original="#008ADF" class="" style="fill:#EC454F" data-old_color="#008adf"/><path d="m210.675781 428.113281c-2.539062 0-5.074219-.046875-7.621093-.136719-53.242188-1.90625-103.320313-23.710937-141.011719-61.40625-37.695313-37.691406-59.5-87.773437-61.40625-141.011718-1.894531-52.964844 16.011719-104.203125 50.417969-144.277344 2.722656-3.167969 6.644531-5.0625 10.816406-5.21875 4.191406-.152344 8.230468 1.429688 11.183594 4.382812l275.109374 275.113282c2.957032 2.953125 4.546876 7.007812 4.386719 11.179687-.160156 4.175781-2.050781 8.097657-5.21875 10.820313-38.148437 32.75-86.417969 50.554687-136.65625 50.554687zm0 0" fill="#f3eee9" data-original="#F3EEE9" class="" style="fill:#F3EEE9"/><path d="m352.457031 126.484375c-6.105469 0-11.84375-3.753906-14.078125-9.816406-2.210937-5.992188-5.769531-11.546875-10.285156-16.066407-4.546875-4.542968-9.902344-7.984374-15.921875-10.230468-7.765625-2.898438-11.714844-11.542969-8.8125-19.308594 2.894531-7.765625 11.539063-11.710938 19.304687-8.816406 10.078126 3.761718 19.046876 9.527344 26.652344 17.132812 7.5625 7.5625 13.519532 16.867188 17.222656 26.898438 2.867188 7.777344-1.113281 16.40625-8.886718 19.277344-1.710938.632812-3.46875.929687-5.195313.929687zm0 0" fill="#3aaaff" data-original="#3AAAFF" class="" style="fill:#DA404A" data-old_color="#3aaaff"/><path d="m413.640625 122.699219c-6.957031 0-13.199219-4.867188-14.675781-11.949219-4.167969-19.980469-13.996094-38.167969-28.425782-52.59375-14.460937-14.464844-32.691406-24.300781-52.714843-28.449219-8.117188-1.679687-13.332031-9.625-11.652344-17.738281 1.683594-8.117188 9.621094-13.335938 17.742187-11.652344 25.773438 5.339844 49.238282 18 67.851563 36.613282 18.570313 18.574218 31.222656 41.980468 36.582031 67.695312 1.691406 8.113281-3.515625 16.0625-11.628906 17.753906-1.03125.214844-2.0625.320313-3.078125.320313zm0 0" fill="#3aaaff" data-original="#3AAAFF" class="" style="fill:#DA404A" data-old_color="#3aaaff"/><path d="m238.53125 512h-210.109375c-8.289063 0-15.007813-6.71875-15.007813-15.007812 0-8.289063 6.71875-15.007813 15.007813-15.007813h210.109375c8.289062 0 15.007812 6.71875 15.007812 15.007813 0 8.289062-6.71875 15.007812-15.007812 15.007812zm0 0" fill="#00429b" data-original="#00429B" class="active-path" style="fill:#DA404A" data-old_color="#00429b"/><path d="m428.347656 104.625c-5.179687-24.847656-17.179687-47.523438-34.734375-65.777344l-21.472656 20.964844c13.546875 14.15625 22.8125 31.710938 26.824219 50.9375 1.476562 7.082031 7.714844 11.949219 14.675781 11.949219 1.011719 0 2.042969-.105469 3.078125-.320313 8.113281-1.691406 13.320312-9.640625 11.628906-17.753906zm0 0" fill="#008adf" data-original="#008ADF" class="" style="fill:#EC454F" data-old_color="#008adf"/><path d="m350.65625 80.792969-21.46875 20.96875c3.996094 4.296875 7.164062 9.414062 9.191406 14.90625 2.234375 6.0625 7.972656 9.816406 14.078125 9.816406 1.726563 0 3.484375-.296875 5.195313-.929687 7.773437-2.871094 11.753906-11.5 8.886718-19.277344-3.480468-9.421875-8.964843-18.183594-15.882812-25.484375zm0 0" fill="#008adf" data-original="#008ADF" class="" style="fill:#EC454F" data-old_color="#008adf"/><path d="m150.433594 276.328125 53.988281 53.984375c2.839844 2.84375 6.671875 4.398438 10.609375 4.398438.976562 0 1.957031-.09375 2.933594-.289063 4.917968-.980469 9.019531-4.351563 10.9375-8.984375l74.816406-180.9375c2.164062-5.234375 1.183594-11.210938-2.453125-15.46875zm0 0" fill="#ebb100" data-original="#EBB100" class="" style="fill:#DA404A" data-old_color="#ebb100"/><path d="m210.386719 217.78125-150.304688 146.785156c.652344.667969 1.296875 1.34375 1.960938 2.003906 37.691406 37.695313 87.769531 59.5 141.011719 61.40625 2.546874.089844 5.082031.136719 7.621093.136719 50.238281 0 98.507813-17.800781 136.65625-50.554687 3.167969-2.722656 5.058594-6.644532 5.21875-10.820313.160157-4.171875-1.429687-8.226562-4.386719-11.179687zm0 0" fill="#e9dfda" data-original="#E9DFDA" class="" style="fill:#E9DFDA"/><path d="m238.53125 481.984375h-105.503906v30.015625h105.503906c8.289062 0 15.007812-6.71875 15.007812-15.007812 0-8.289063-6.71875-15.007813-15.007812-15.007813zm0 0" fill="#002659" data-original="#002659" class="" style="fill:#DA404A" data-old_color="#002659"/></g> </svg>
