<?xml version="1.0"?>
<svg xmlns="http://www.w3.org/2000/svg" id="Capa_1" enable-background="new 0 0 512 512" height="512px" viewBox="0 0 512 512" width="512px"><g><g><path d="m346 0c-8.291 0-15 6.709-15 15v24.446c-32.701-8.91-67.925-9.446-75-9.446-13.813 0-135 1.816-135 64.658v372.342c0 24.814 20.186 45 45 45h180c24.814 0 45-20.186 45-45v-372.342c0-20.186-12.567-34.017-30-43.572v-36.086c0-8.291-6.709-15-15-15zm-150 451c-8.284 0-15-6.716-15-15 0-8.286 6.716-15 15-15s15 6.714 15 15c0 8.284-6.716 15-15 15zm0-60c-8.284 0-15-6.716-15-15 0-8.286 6.716-15 15-15s15 6.714 15 15c0 8.284-6.716 15-15 15zm0-60c-8.284 0-15-6.716-15-15 0-8.286 6.716-15 15-15s15 6.714 15 15c0 8.284-6.716 15-15 15zm60 120c-8.284 0-15-6.716-15-15 0-8.286 6.716-15 15-15s15 6.714 15 15c0 8.284-6.716 15-15 15zm0-60c-8.284 0-15-6.716-15-15 0-8.286 6.716-15 15-15s15 6.714 15 15c0 8.284-6.716 15-15 15zm0-60c-8.284 0-15-6.716-15-15 0-8.286 6.716-15 15-15s15 6.714 15 15c0 8.284-6.716 15-15 15zm60 120c-8.284 0-15-6.716-15-15 0-8.286 6.716-15 15-15s15 6.714 15 15c0 8.284-6.716 15-15 15zm0-60c-8.284 0-15-6.716-15-15 0-8.286 6.716-15 15-15s15 6.714 15 15c0 8.284-6.716 15-15 15zm0-60c-8.284 0-15-6.716-15-15 0-8.286 6.716-15 15-15s15 6.714 15 15c0 8.284-6.716 15-15 15zm15-75c0 8.291-6.709 15-15 15h-120c-8.291 0-15-6.709-15-15v-140.219c0-6.533 4.233-12.319 10.474-14.297 16.523-5.244 41.132-11.484 64.526-11.484 23.496 0 48.062 6.255 64.556 11.499 6.211 1.992 10.444 7.764 10.444 14.297z" data-original="#000000" class="active-path" data-old_color="#000000" fill="#EC454F"/><path d="m211 126.987v114.013h90v-114.013c-13.315-3.647-29.678-6.987-45-6.987-15.264 0-31.641 3.34-45 6.987z" data-original="#000000" class="active-path" data-old_color="#000000" fill="#EC454F"/></g></g> </svg>
