<?xml version="1.0" encoding="utf-8"?>
<!-- Generator: Adobe Illustrator 24.0.1, SVG Export Plug-In . SVG Version: 6.00 Build 0)  -->
<svg version="1.1" id="_x39_6306a94-3bea-4326-87c9-b4488db4c6c8"
	 xmlns="http://www.w3.org/2000/svg" xmlns:xlink="http://www.w3.org/1999/xlink" x="0px" y="0px" viewBox="0 0 1097.1 807.9"
	 style="enable-background:new 0 0 1097.1 807.9;" xml:space="preserve">
<style type="text/css">
	.st0{opacity:0.1;fill:#F44881;enable-background:new    ;}
	.st1{opacity:0.1;}
	.st2{fill:none;stroke:#535461;stroke-width:2;stroke-miterlimit:10;}
	.st3{fill:#F44881;}
	.st4{opacity:0.25;enable-background:new    ;}
	.st5{fill:#535461;}
	.st6{fill:#EAEAF3;}
	.st7{fill:#FFFFFF;}
</style>
<title>android</title>
<path class="st0" d="M11.8,430C29.2,504.2,66,568.3,124,599.4c120.7,64.6,392.9,31.3,596.1-7c102.7-19.3,195.8-72.6,264.5-151.2
	L11.8,430z"/>
<path class="st0" d="M1077.2,80.7H965.7c-5.3,0-9.6-4.3-9.6-9.6c0-5.3,4.3-9.6,9.6-9.6H985c-5.3,0-9.6-4.3-9.6-9.6s4.3-9.6,9.6-9.6
	h-13.8c-5.3,0-9.6-4.3-9.6-9.6s4.3-9.6,9.6-9.6h58.2c-12.9-6-28-10.3-45.4-12.5c-158.6-20.4-215.3-6.9-235.3,7
	c-24.7,17.1-52.2,29.7-81.5,35.7c-97.9,20.2-280.9,44.5-446.8-7.8c-82.5-26-143.8,17.9-180.5,91.3h1056.6
	c-1.4-21.3-5.5-41-13.1-58.2C1081.7,79.9,1079.5,80.7,1077.2,80.7z"/>
<path class="st0" d="M2.4,275.1c-4.3,43.2-2.8,86.7,4.3,129.5l978.7,35.8c27.2-31.3,50.1-66.2,68-103.7L2.4,275.1z M389.5,367.5
	h-19.3c5.3,0,9.6,4.3,9.6,9.6c0,5.3-4.3,9.6-9.6,9.6H258.7c-5.3,0-9.6-4.3-9.6-9.6c0-5.3,4.3-9.6,9.6-9.6H278
	c-5.3,0-9.6-4.3-9.6-9.6c0-5.3,4.3-9.6,9.6-9.6l0,0h-13.8c-5.3,0-9.6-4.3-9.6-9.6c0-5.3,4.3-9.6,9.6-9.6l0,0h111.5
	c5.3,0,9.6,4.3,9.6,9.6c0,5.3-4.3,9.6-9.6,9.6h13.8c5.3,0,9.6,4.3,9.6,9.6C399.1,363.1,394.8,367.5,389.5,367.5z"/>
<path class="st0" d="M1096.6,137.3l-1068.5,26c-13,33.4-21.6,71.2-25.6,110.3h1075.3c7-23,12.2-46.5,15.5-70.3
	C1096.6,180.3,1097.9,158,1096.6,137.3z M219.5,222.4h-19.3c5.3,0,9.6,4.3,9.6,9.6c0,5.3-4.3,9.6-9.6,9.6H88.7
	c-5.3,0-9.6-4.3-9.6-9.6c0-5.3,4.3-9.6,9.6-9.6H108c-5.3,0-9.6-4.3-9.6-9.6s4.3-9.6,9.6-9.6H94.2c-5.3,0-9.6-4.3-9.6-9.6
	c0-5.3,4.3-9.6,9.6-9.6h111.5c5.3,0,9.6,4.3,9.6,9.6c0,5.3-4.3,9.6-9.6,9.6h13.8c5.3,0,9.6,4.3,9.6,9.6S224.8,222.4,219.5,222.4z"/>
<g class="st1">
	<path class="st2" d="M677.5,623.3c0,0,28.2-69.5,80.9-95.3c22.2-10.7,40.3-28.2,51.6-50.1c5.3-10.4,9.6-21.3,12.9-32.5"/>
	<path class="st3" d="M856,429c-5.5,6.9-33.9,17-33.9,17s3.4-30,8.9-36.9c5.9-6.6,16-7.1,22.6-1.2C859.7,413.4,860.7,422.4,856,429
		L856,429z"/>
	<path class="st3" d="M846.3,483.7c-8.4,2.8-37.7-4.2-37.7-4.2s19.2-23.3,27.5-26.1c8.5-2.3,17.3,2.8,19.6,11.4
		C857.7,472.5,853.7,480.6,846.3,483.7z"/>
	<path class="st3" d="M793.4,548.3c-8.6-1.8-30.4-22.6-30.4-22.6s28.3-10.4,36.9-8.6c8.5,2.4,13.5,11.2,11.1,19.7
		C808.9,544.4,801.4,549.4,793.4,548.3L793.4,548.3z"/>
	<path class="st3" d="M742.4,588.1c-8.8-0.3-33.8-17.2-33.8-17.2s26.1-15,34.9-14.8c8.8-0.3,16.2,6.7,16.5,15.5
		c0.3,8.8-6.7,16.2-15.5,16.5C743.8,588.2,743.1,588.2,742.4,588.1z"/>
	<path class="st3" d="M781.3,460c1.1,8.8,20.2,32.1,20.2,32.1s12.6-27.4,11.5-36.1c-1.7-8.7-10.1-14.3-18.8-12.6
		C786.3,444.8,780.8,451.9,781.3,460z"/>
	<path class="st3" d="M722.2,507.3c3.7,8,28.9,24.5,28.9,24.5s3.8-29.9,0.1-37.9c-3.2-8.2-12.4-12.4-20.7-9.2
		c-8.2,3.2-12.4,12.4-9.2,20.7C721.6,506.1,721.9,506.7,722.2,507.3L722.2,507.3z"/>
	<path class="st3" d="M671.2,561.3c2.3,8.5,24.3,29.1,24.3,29.1s8.8-28.8,6.5-37.3c-2.8-8.4-11.9-12.8-20.3-10
		C674.1,545.6,669.6,553.4,671.2,561.3L671.2,561.3z"/>
	<path class="st4" d="M856,429c-5.5,6.9-33.9,17-33.9,17s3.4-30,8.9-36.9c5.9-6.6,16-7.1,22.6-1.2C859.7,413.4,860.7,422.4,856,429
		L856,429z"/>
	<path class="st4" d="M846.3,483.7c-8.4,2.8-37.7-4.2-37.7-4.2s19.2-23.3,27.5-26.1c8.5-2.3,17.3,2.8,19.6,11.4
		C857.7,472.5,853.7,480.6,846.3,483.7z"/>
	<path class="st4" d="M793.4,548.3c-8.6-1.8-30.4-22.6-30.4-22.6s28.3-10.4,36.9-8.6c8.5,2.4,13.5,11.2,11.1,19.7
		C808.9,544.4,801.4,549.4,793.4,548.3L793.4,548.3z"/>
	<path class="st4" d="M742.4,588.1c-8.8-0.3-33.8-17.2-33.8-17.2s26.1-15,34.9-14.8c8.8-0.3,16.2,6.7,16.5,15.5
		c0.3,8.8-6.7,16.2-15.5,16.5C743.8,588.2,743.1,588.2,742.4,588.1z"/>
	<path class="st4" d="M781.3,460c1.1,8.8,20.2,32.1,20.2,32.1s12.6-27.4,11.5-36.1c-1.7-8.7-10.1-14.3-18.8-12.6
		C786.3,444.8,780.8,451.9,781.3,460z"/>
	<path class="st4" d="M722.2,507.3c3.7,8,28.9,24.5,28.9,24.5s3.8-29.9,0.1-37.9c-3.2-8.2-12.4-12.4-20.7-9.2
		c-8.2,3.2-12.4,12.4-9.2,20.7C721.6,506.1,721.9,506.7,722.2,507.3L722.2,507.3z"/>
	<path class="st4" d="M671.2,561.3c2.3,8.5,24.3,29.1,24.3,29.1s8.8-28.8,6.5-37.3c-2.8-8.4-11.9-12.8-20.3-10
		C674.1,545.6,669.6,553.4,671.2,561.3L671.2,561.3z"/>
</g>
<g class="st1">
	<path class="st2" d="M657.5,521.7c0,0,3.6-74.9,44.7-116.7c17.3-17.4,28.6-40,32-64.4c1.5-11.6,2-23.3,1.4-34.9"/>
	<path class="st3" d="M761.5,279.2c-2.9,8.3-26.3,27.3-26.3,27.3s-6.7-29.4-3.8-37.7c2.3-8.5,11.1-13.6,19.6-11.3
		c8.5,2.3,13.6,11.1,11.3,19.6C762.1,277.8,761.8,278.5,761.5,279.2z"/>
	<path class="st3" d="M770.4,334c-7,5.4-36.9,8.6-36.9,8.6s10.3-28.3,17.3-33.7c6.6-5.9,16.7-5.3,22.6,1.3
		c5.9,6.6,5.3,16.7-1.3,22.6C771.5,333.1,771,333.6,770.4,334z"/>
	<path class="st3" d="M742,412.5c-8.7,1.2-36.2-11.3-36.2-11.3s23.2-19.2,32-20.4c8.7-1.7,17.1,3.9,18.8,12.5
		c1.7,8.7-3.9,17.1-12.5,18.8C743.4,412.3,742.7,412.4,742,412.5L742,412.5z"/>
	<path class="st3" d="M707.1,467c-8.4,2.6-37.6-5-37.6-5s19.6-22.9,28.1-25.5c8.6-2.1,17.2,3.2,19.3,11.8
		C718.8,456.1,714.6,464.1,707.1,467L707.1,467z"/>
	<path class="st3" d="M701.3,333.2c4,7.9,29.7,23.5,29.7,23.5s2.8-30-1.2-37.9c-4.5-7.6-14.3-10.2-21.9-5.7
		C700.9,317.2,698.1,325.8,701.3,333.2L701.3,333.2z"/>
	<path class="st3" d="M661.3,397.5c6.1,6.3,35.4,13.6,35.4,13.6s-6.3-29.5-12.5-35.8c-6.5-5.9-16.7-5.5-22.6,1.1
		C656.2,382.3,656,391.4,661.3,397.5L661.3,397.5z"/>
	<path class="st3" d="M631,465.3c5,7.3,32.6,19.4,32.6,19.4s-1.3-30.1-6.2-37.4c-5.5-6.9-15.6-8-22.5-2.5
		C628.6,449.7,627,458.4,631,465.3L631,465.3z"/>
</g>
<path class="st0" d="M299.7,775.8c39.3,13.2,87.3,5.2,131.9,6.1c6.1,0.1,12.6,0.5,17.5,2.8s7.3,6,10.7,9.2
	c12.5,11.8,38.1,15.6,60.5,13.6s42.9-8.6,64-13.7c36.5-8.7,78.3-12.7,114.3-3.2c3.3,0.9,6.8,1.9,10.3,1.5
	c7.9-0.8,10.2-7.1,15.8-10.7c10-6.5,31.6-4.8,36-13.3c2.6-5-3.3-10.2-9.8-13.6c-24.6-13.2-59.8-15.3-92.1-13.3s-63.9,7.6-96.3,7.7
	c-40.3,0-79.3-8.6-119.3-12.1c-27.7-2.4-57.9-2.1-83.8,5C331.4,749.5,325.2,766.9,299.7,775.8z"/>
<rect x="365.5" y="184.9" class="st5" width="7" height="99"/>
<rect x="365.5" y="317.9" class="st5" width="7" height="56"/>
<path class="st5" d="M417.6,87.9h220.8c26,0,47.1,21.1,47.1,47.1v589.8c0,26-21.1,47.1-47.1,47.1H417.6c-26,0-47.1-21.1-47.1-47.1
	V135C370.5,109,391.6,87.9,417.6,87.9z"/>
<path class="st3" d="M417.6,119.9h220.8c26,0,47.1,21.1,47.1,47.1v528.8c0,26-21.1,47.1-47.1,47.1H417.6c-26,0-47.1-21.1-47.1-47.1
	V167C370.5,141,391.6,119.9,417.6,119.9z"/>
<path class="st6" d="M506,102.9h45c1.9,0,3.5,1.6,3.5,3.5l0,0c0,1.9-1.6,3.5-3.5,3.5h-45c-1.9,0-3.5-1.6-3.5-3.5l0,0
	C502.5,104.5,504.1,102.9,506,102.9z"/>
<circle class="st6" cx="572.5" cy="106.9" r="5"/>
<path class="st7" d="M446.3,396.1v73c0.1,9.5-7.5,17.4-17.1,17.5c-0.1,0-0.2,0-0.3,0c-9.6,0-19-7.8-19-17.5v-73
	c0-9.5,9.3-17.3,19-17.3C438.5,378.8,446.3,386.5,446.3,396.1z M453.1,495c0,10.3,8.3,18.6,18.6,18.7c0,0,0.1,0,0.1,0h12.5l0.2,38.5
	c0,23.2,34.8,23.1,34.8,0v-38.5h23.4v38.5c0,23.1,35,23.2,35,0v-38.5h12.7c10.3,0,18.6-8.4,18.5-18.6c0,0,0,0,0,0V382H453.1V495z
	 M609.4,375.9h-157c0-27,16.1-50.4,40.1-62.6l-12-22.2c-1.8-3.1,2.7-5,4.2-2.4l12.2,22.4c21.8-9.5,46.5-9.5,68.2,0l12.2-22.4
	c1.6-2.7,6-0.7,4.2,2.4l-12,22.2C593.3,325.5,609.4,348.9,609.4,375.9z M501.8,340.9c0-3.7-3-6.6-6.6-6.6c-3.7,0.1-6.5,3.2-6.4,6.9
	c0.1,3.5,2.9,6.2,6.4,6.4C498.9,347.5,501.8,344.5,501.8,340.9L501.8,340.9z M573.3,340.9c-0.1-3.6-3-6.5-6.6-6.4
	c-3.6,0.1-6.5,3-6.4,6.6c0.1,3.6,3,6.5,6.6,6.4C570.5,347.4,573.3,344.5,573.3,340.9L573.3,340.9z M633,378.8
	c-9.5,0-17.3,7.7-17.3,17.2c0,0,0,0.1,0,0.1v73c0,9.6,7.7,17.4,17.3,17.5c0,0,0,0,0,0c9.7,0,19-7.8,19-17.5v-73
	C652,386.4,642.7,378.8,633,378.8L633,378.8z"/>
<rect x="454" y="569.5" class="st5" width="65" height="3"/>
<rect x="543" y="569.5" class="st5" width="43" height="3"/>
<rect x="397" y="569.5" class="st5" width="43" height="3"/>
<rect x="611" y="569.5" class="st5" width="43" height="3"/>
</svg>
