<svg xmlns="http://www.w3.org/2000/svg" viewBox="0 0 500 500"><g id="background-simple--inject-37"><path d="M92,182.4c8.19,103.29,48.4,203.46,169.2,195.28,62.27-4.22,182.32-55.44,170.6-134-16.14-108.25-128.41-45.81-185.65-72.1-39.25-18-25.46-89.75-91.21-88.62C102.91,83.87,88.54,139.45,92,182.4Z" style="fill:#ebebeb"></path></g><g id="Device--inject-37"><path d="M296.22,405.73l-104.08-.49a22.66,22.66,0,0,1-22.57-22.76l1.11-260.93A22.68,22.68,0,0,1,193.45,99l104.08.48a22.68,22.68,0,0,1,22.57,22.77L319,383.15A22.69,22.69,0,0,1,296.22,405.73Z" style="fill:#263238"></path><path d="M297.38,108.46l-20.18-.09a5,5,0,0,0-4.92,5.1v3.66a5,5,0,0,1-4.92,5.1L228,122.05a5,5,0,0,1-4.88-5.15l0-3.66a5,5,0,0,0-4.88-5.15l-7.1,0L193.51,108a15.88,15.88,0,0,0-15.95,15.81l-1.08,254.68a15.89,15.89,0,0,0,15.81,15.95l103.87.48a15.88,15.88,0,0,0,15.95-15.81l1.08-254.68A15.89,15.89,0,0,0,297.38,108.46Z" style="fill:#fff"></path><path d="M240.29,362.76a2.18,2.18,0,1,1-2.18-2.18A2.19,2.19,0,0,1,240.29,362.76Z" style="fill:#455a64"></path><path d="M248.57,362.76a2.18,2.18,0,1,1-2.18-2.18A2.19,2.19,0,0,1,248.57,362.76Z" style="fill:#455a64"></path><path d="M256.85,362.76a2.18,2.18,0,1,1-2.18-2.18A2.19,2.19,0,0,1,256.85,362.76Z" style="fill:#455a64"></path><path d="M196.91,179.51s0-.18,0-.55a7.22,7.22,0,0,1,1.47-4,7.44,7.44,0,0,1,2.81-2.32,9.13,9.13,0,0,1,4.53-.75h18.92l80,.16h.59l-.41.43-10.25,10.78.07-.17v17.85a13.38,13.38,0,0,1-.26,3.55,7.66,7.66,0,0,1-1.69,3.15,7.75,7.75,0,0,1-2.88,2.06,8.59,8.59,0,0,1-3.46.59H253.71L210,210.2H205.4a8.67,8.67,0,0,1-4.29-.77,7.68,7.68,0,0,1-4.32-6.39c0-5,0-9.21,0-12.7s0-6.17.05-8c0-.91,0-1.6,0-2.09s0-.71,0-.71,0,.24,0,.71,0,1.18,0,2.09c0,1.85,0,4.55,0,8s0,7.75.07,12.68a7.37,7.37,0,0,0,4.18,6.11,8.28,8.28,0,0,0,4.14.72H210l43.76-.05,25.84,0h6.78a8,8,0,0,0,3.26-.55,7.35,7.35,0,0,0,2.7-1.92,7.09,7.09,0,0,0,1.56-2.94,12.84,12.84,0,0,0,.25-3.42V183l.07-.07,10.26-10.78.19.43-80-.34-13.44-.07-5.49,0a9,9,0,0,0-4.44.69,7.34,7.34,0,0,0-2.78,2.24,7.65,7.65,0,0,0-1.22,2.34A11.38,11.38,0,0,0,196.91,179.51Z" style="fill:#455a64"></path><polygon points="282.22 185.91 207.45 185.56 207.46 183.26 282.22 183.61 282.22 185.91" style="fill:#455a64"></polygon><polygon points="282.22 193.47 207.45 193.12 207.46 190.82 282.22 191.17 282.22 193.47" style="fill:#455a64"></polygon><rect x="266.28" y="184.82" width="2.3" height="29.58" transform="translate(66.5 466.06) rotate(-89.72)" style="fill:#455a64"></rect><path d="M298.56,230.15v23a7.53,7.53,0,0,1-7.52,7.53h-82.4a7.53,7.53,0,0,1-7.53-7.53V233.72l-10.25-10.78L291,222.63A7.52,7.52,0,0,1,298.56,230.15Z" style="fill:#F44881"></path><polygon points="213.26 236.55 288.03 236.2 288.02 233.9 213.25 234.25 213.26 236.55" style="fill:#fff"></polygon><polygon points="213.26 244.11 288.03 243.76 288.02 241.47 213.25 241.81 213.26 244.11" style="fill:#fff"></polygon><rect x="213.25" y="249.11" width="29.58" height="2.3" transform="translate(-1.23 1.12) rotate(-0.28)" style="fill:#fff"></rect><path d="M253.71,142.12a4,4,0,0,0,2.4-3.74,3.79,3.79,0,1,0-7.57,0,4,4,0,0,0,2.41,3.77c-5.83.88-5.57,7.22-5.57,7.22l13.79.06S259.49,143,253.71,142.12Z" style="fill:#F44881"></path><path d="M253.71,142.12a4,4,0,0,0,2.4-3.74,3.79,3.79,0,1,0-7.57,0,4,4,0,0,0,2.41,3.77c-5.83.88-5.57,7.22-5.57,7.22l13.79.06S259.49,143,253.71,142.12Z" style="fill:#fff;opacity:0.5"></path><path d="M246.14,142.12a4.06,4.06,0,0,0,2.41-3.74,3.8,3.8,0,1,0-7.58,0,4,4,0,0,0,2.41,3.77c-5.83.88-5.57,7.22-5.57,7.22l13.79.06S251.92,143,246.14,142.12Z" style="fill:#F44881"></path><rect x="230.13" y="152.17" width="37.07" height="4.6" transform="translate(0.72 -1.15) rotate(0.26)" style="fill:#F44881"></rect><rect x="230.13" y="152.17" width="37.07" height="4.6" transform="translate(0.72 -1.15) rotate(0.26)" style="fill:#fff;opacity:0.30000000000000004"></rect><path d="M198.64,282.52a2.74,2.74,0,0,1,0-.54,3.86,3.86,0,0,1,.51-1.53,4.06,4.06,0,0,1,2-1.71,10,10,0,0,1,3.56-.31h22.93l77.21.16h.59L305,279,294.9,289.84l.07-.18v7.25c0,.54,0,1,0,1.6a4.23,4.23,0,0,1-2.84,3.79,4.58,4.58,0,0,1-1.63.24H279.73l-23.31,0L217,302.46H203.51a7.77,7.77,0,0,1-1.73-.1,4.14,4.14,0,0,1-3.2-3.34,9.47,9.47,0,0,1-.06-1.49c0-1.91,0-3.65,0-5.22,0-3.13,0-5.56.05-7.24,0-.81,0-1.43,0-1.88s0-.64,0-.64,0,.22,0,.64,0,1.07,0,1.88c0,1.68,0,4.11.05,7.24,0,1.57,0,3.31,0,5.22a8.63,8.63,0,0,0,.07,1.44,3.85,3.85,0,0,0,3,3.11,8.28,8.28,0,0,0,1.67.08H209l8,0,39.46-.06h34.07a4.08,4.08,0,0,0,1.45-.21,3.76,3.76,0,0,0,2.14-1.91,3.68,3.68,0,0,0,.36-1.42c0-.5,0-1.05,0-1.57v-7.35l.07-.07,10.12-10.82.18.43-77.2-.33-22.93-.15a9.6,9.6,0,0,0-3.5.26,4,4,0,0,0-2.48,3.1A4.51,4.51,0,0,1,198.64,282.52Z" style="fill:#455a64"></path><polygon points="285.57 288.58 210.8 288.24 210.81 285.94 285.58 286.29 285.57 288.58" style="fill:#455a64"></polygon><rect x="269.26" y="279.59" width="2.3" height="30.34" transform="translate(-25.67 563.72) rotate(-89.72)" style="fill:#455a64"></rect><path d="M295.93,323.54v15.75a4,4,0,0,1-4,4H203.87a4,4,0,0,1-4-4v-8.61l-10.11-10.82,102.17-.32A4,4,0,0,1,295.93,323.54Z" style="fill:#F44881"></path><polygon points="209.01 329.6 283.78 329.26 283.77 326.96 209 327.31 209.01 329.6" style="fill:#fff"></polygon><polygon points="209.01 337 283.78 336.65 283.77 334.36 209 334.7 209.01 337" style="fill:#fff"></polygon></g></svg>
