<?xml version="1.0" encoding="utf-8"?>
<!-- Generator: Adobe Illustrator 24.0.2, SVG Export Plug-In . SVG Version: 6.00 Build 0)  -->
<svg version="1.1"
	 id="svg8" inkscape:version="0.92.4 (5da689c313, 2019-01-14)" sodipodi:docname="Huawei logo 2018.svg" xmlns:cc="http://creativecommons.org/ns#" xmlns:dc="http://purl.org/dc/elements/1.1/" xmlns:inkscape="http://www.inkscape.org/namespaces/inkscape" xmlns:rdf="http://www.w3.org/1999/02/22-rdf-syntax-ns#" xmlns:sodipodi="http://sodipodi.sourceforge.net/DTD/sodipodi-0.dtd" xmlns:svg="http://www.w3.org/2000/svg"
	 xmlns="http://www.w3.org/2000/svg" xmlns:xlink="http://www.w3.org/1999/xlink" x="0px" y="0px" viewBox="0 0 101 102.7"
	 style="enable-background:new 0 0 101 102.7;" xml:space="preserve">
<style type="text/css">
	.st0{fill:#232527;}
	.st1{fill:#CF0A2C;}
</style>
<sodipodi:namedview  bordercolor="#666666" borderopacity="1.0" id="base" inkscape:current-layer="layer1" inkscape:cx="70.447952" inkscape:cy="66.002304" inkscape:document-units="mm" inkscape:pageopacity="0.0" inkscape:pageshadow="2" inkscape:window-height="1016" inkscape:window-maximized="1" inkscape:window-width="1850" inkscape:window-x="70" inkscape:window-y="27" inkscape:zoom="3.3239458" pagecolor="#ffffff" showgrid="false">
	</sodipodi:namedview>
<g id="g1133" transform="matrix(0.35277777,0,0,0.35277777,111.58742,140.59444)">
</g>
<g id="g11533" transform="translate(-21.07066,138.86342)">
	<path id="path4250" inkscape:connector-curvature="0" class="st0" d="M-43.3,114.8v56.6c0,16.1-8,24.6-22.5,24.6
		c-14.6,0-22.6-8.8-22.6-25.3v-55.8h-20v56.5c0,27.8,15.4,43.7,42.4,43.7c27.2,0,42.8-16.2,42.8-44.6v-55.8L-43.3,114.8z
		 M30.4,114.8l-43.5,98.8H7.4l8.4-19.1l0.6-1.4h45.2l8.9,20.6h21l-43.1-98.2l-0.4-0.6L30.4,114.8z M149.6,114.8l-22.4,68l-21.8-67.9
		H84l34.4,98.8h16.6l22.5-64.9l22.5,64.9h16.7l34.3-98.8h-20.8l-21.9,67.9l-22.4-68H149.6z M345.8,114.8v98.7h19.8v-98.7H345.8z
		 M-221.6,114.8v98.8h20v-40.1h45.3v40.1h20.1v-98.8h-20.1v39.9h-45.3v-39.9H-221.6z M247.2,114.9v98.7h74.6v-18H267v-24.5h36.5v-18
		H267v-20.2H320v-18L247.2,114.9z M38.9,139.8l14.3,33.1h-0.1l1,2.3H23.8l1-2.3h0L38.9,139.8z"/>
	<path id="path4252" inkscape:connector-curvature="0" class="st1" d="M28.1-390.2c-8,0.7-29.4,5.6-29.4,5.6h0
		c-48.4,12.5-59.9,56.5-59.9,56.5c-2.4,7.4-3.4,15-3.8,22.1v9.7c0.6,15,4,26.2,4,26.2C-44.8-198.3,34.7-80.4,51.8-55.7
		c1.2,1.2,2.2,0.8,2.2,0.8c1.8-0.5,1.7-2.3,1.7-2.3l0,0C82.1-320.4,28.1-390.2,28.1-390.2L28.1-390.2z M115.1-390.2
		c0,0-54.2,69.8-27.9,333.2h0c0.2,1.7,1.4,2,1.4,2c1.8,0.7,2.7-1,2.7-1l0,0c17.5-25.4,96.6-142.6,112.7-214.1c0,0,8.7-34.6,0.3-58
		c0,0-12-44.6-60.5-56.4C143.9-384.5,130-388.1,115.1-390.2L115.1-390.2z M-134.9-311.1c0,0-46.2,43.8-48.4,90.2h0v7
		c0,0.5,0.1,1.1,0.1,1.6c2,37.4,30.2,59.6,30.2,59.6C-107.7-108.4,2.2-52.6,27.7-39.9c0.4,0.1,1.7,0.6,2.5-0.4c0,0,0.4-0.3,0.6-0.9
		v-1.2c0-0.1-0.1-0.1-0.1-0.2h0C-39.2-195.3-134.9-311.2-134.9-311.1L-134.9-311.1z M278-311.1c0,0-95.4,115.5-165.3,268l0,0
		c0,0-0.8,1.8,0.5,2.9c0,0,0.4,0.3,0.9,0.4h1c0.2-0.1,0.4-0.1,0.5-0.2v0c26.2-13,135.3-68.5,180.5-112.5c0,0,28.6-23,30.1-59.9
		C329.6-263.7,278-311.2,278-311.1L278-311.1z M363.9-159.5c0,0-155.5,83.5-235.9,137.7l0,0l0,0c0,0-1.5,1-0.9,2.7
		c0,0,0.8,1.4,1.9,1.4v0c28.8,0.1,137.8,0.2,140.5-0.3c0,0,14.1-0.6,31.5-7.3c0,0,38.8-12.3,58.9-56.3c0,0,9.2-18.4,9.3-44.3v-1.1
		C369.1-136.9,367.7-148,363.9-159.5L363.9-159.5z M-220.8-159.1c-14.2,43.8,4.9,79.1,4.9,79.2c19.9,41.9,57.7,54.7,57.7,54.7
		c17.5,7.2,35,7.7,35,7.7c2.7,0.5,108.8,0.1,137.2-0.1c1.2,0,1.9-1.2,1.9-1.2c0.1-0.1,0.2-0.3,0.2-0.4v-1.1
		c-0.2-0.7-0.9-1.3-0.9-1.3l0,0C-65.1-75.8-220.8-159.1-220.8-159.1L-220.8-159.1z M10.8-4.2l-183,6.4
		c19.8,35.4,53.3,62.9,88.1,54.4c24-6,78.4-44,96.4-56.8l-0.1-0.1c1.4-1.3,0.9-2.3,0.9-2.3C12.7-4.1,10.8-4.1,10.8-4.2L10.8-4.2z
		 M132-4.1L132-4.1c0,0.1-1.6,0.3-2.1,1.5c0,0-0.4,1.6,0.7,2.5l0,0c17.5,12.6,70.6,49.7,96.2,56.9c0,0,3.9,1.3,10.4,1.6h3.9
		c17.1-0.6,47-9.4,74.1-56L132-4.1z"/>
</g>
</svg>
